<svg width="16" height="16" viewBox="0 0 16 16" fill="none" xmlns="http://www.w3.org/2000/svg">
<path d="M0.116378 6.43878C-0.120721 6.67588 0.0274743 7.09082 0.353478 7.09082H1.77607L8 1.56781L11.112 4.32932L14.2239 7.09082H15.6465C15.9725 7.09082 16.1207 6.67588 15.8836 6.46843L9.06693 0.422327C8.47418 -0.140776 7.52578 -0.140776 6.933 0.422327L0.116378 6.43878Z" fill="#A0A5AA"/>
<path fill-rule="evenodd" clip-rule="evenodd" d="M8.02146 15.8013C9.99763 14.9253 12.4865 12.0599 12.4865 9.60571C12.4865 7.15152 10.4875 5.16201 8.02146 5.16201C5.55547 5.16201 3.55639 7.15152 3.55639 9.60571C3.55639 12.0599 6.04529 14.9253 8.02146 15.8013ZM8.05184 10.9991C8.94122 10.9991 9.66221 10.2781 9.66221 9.38875C9.66221 8.49937 8.94122 7.77838 8.05184 7.77838C7.16246 7.77838 6.44147 8.49937 6.44147 9.38875C6.44147 10.2781 7.16246 10.9991 8.05184 10.9991Z" fill="#A0A5AA"/>
</svg>
